<svg xmlns="http://www.w3.org/2000/svg" viewBox="0 0 640 512" width="140" height="60">
  <path fill="#0866FF" d="M522.8 222.5c-1.5-1.1-3.5-1.7-5.5-1.7h-1.1c-3.3 0-6.5 1.3-8.9 3.6-2.4 2.3-3.7 5.4-3.7 8.7 0 3.3 1.3 6.5 3.7 8.9 2.4 2.4 5.6 3.7 8.9 3.7h1.1c2 0 4-.6 5.5-1.7 1.5-1.1 2.7-2.7 3.4-4.5.7-1.8 1.1-3.8 1.1-5.8 0-2-.4-4-.1-5.8-.7-1.8-1.9-3.4-3.4-4.5zm-15.5-15.5c4.7-4.7 11-7.3 17.7-7.3h1.1c6.7 0 13 2.6 17.7 7.3 4.7 4.7 7.3 11 7.3 17.7 0 6.7-2.6 13-7.3 17.7-4.7 4.7-11 7.3-17.7 7.3h-1.1c-6.7 0-13-2.6-17.7-7.3-4.7-4.7-7.3-11-7.3-17.7 0-6.7 2.6-13 7.3-17.7zm-15.5 15.5c-1.5 1.1-3.5 1.7-5.5 1.7h-1.1c-3.3 0-6.5-1.3-8.9-3.7-2.4-2.4-3.7-5.6-3.7-8.9 0-3.3 1.3-6.4 3.7-8.7 2.4-2.3 5.6-3.6 8.9-3.6h1.1c2 0 4 .6 5.5 1.7 1.5 1.1 2.7 2.7 3.4 4.5.7 1.8 1.1 3.8 1.1 5.8 0 2-.4 4-1.1 5.8-.7 1.8-1.9 3.4-3.4 4.5zm-15.5-15.5c4.7 4.7 11 7.3 17.7 7.3h1.1c6.7 0 13-2.6 17.7-7.3 4.7-4.7 7.3-11 7.3-17.7 0-6.7-2.6-13-7.3-17.7-4.7-4.7-11-7.3-17.7-7.3h-1.1c-6.7 0-13 2.6-17.7 7.3-4.7 4.7-7.3 11-7.3 17.7 0 6.7 2.6 13 7.3 17.7zM320 64C143.3 64 0 207.3 0 384c0 17.7 14.3 32 32 32h544c17.7 0 32-14.3 32-32C608 207.3 464.7 64 320 64zM128 384c-17.7 0-32-14.3-32-32s14.3-32 32-32 32 14.3 32 32-14.3 32-32 32zm96-32c0 17.7-14.3 32-32 32s-32-14.3-32-32 14.3-32 32-32 32 14.3 32 32zm96 32c-17.7 0-32-14.3-32-32s14.3-32 32-32 32 14.3 32 32-14.3 32-32 32zm96-32c0 17.7-14.3 32-32 32s-32-14.3-32-32 14.3-32 32-32 32 14.3 32 32zm96 32c-17.7 0-32-14.3-32-32s14.3-32 32-32 32 14.3 32 32-14.3 32-32 32z"/>
</svg> 