<svg xmlns="http://www.w3.org/2000/svg" viewBox="0 0 448 512" width="140" height="60">
  <path fill="#E50914" d="M244.1 141.3c0-27.6-20.9-47.5-48.5-47.5s-48.5 20-48.5 47.5c0 27.6 20.9 47.5 48.5 47.5s48.5-19.9 48.5-47.5zm-48.5 185.3c-27.6 0-48.5-20-48.5-47.5s20.9-47.5 48.5-47.5 48.5 20 48.5 47.5-20.9 47.5-48.5 47.5zm185.3-185.3c0-27.6-20.9-47.5-48.5-47.5s-48.5 20-48.5 47.5c0 27.6 20.9 47.5 48.5 47.5s48.5-19.9 48.5-47.5zm-48.5 185.3c-27.6 0-48.5-20-48.5-47.5s20.9-47.5 48.5-47.5 48.5 20 48.5 47.5-20.9 47.5-48.5 47.5z"/>
</svg> 