<svg xmlns="http://www.w3.org/2000/svg" viewBox="0 0 640 512" width="140" height="60">
  <path fill="#00A1E0" d="M483.7 229.9c-30.1-11.7-61.7-15.5-78.4-15.5-13.3 0-26.1 2.6-38.4 5.2-10.1-24.9-26-47.5-46.1-67.1-30.9-30.9-70.5-50.1-113.4-50.1-42.9 0-82.5 19.2-113.4 50.1-30.9 30.9-50.1 70.5-50.1 113.4 0 42.9 19.2 82.5 50.1 113.4 30.9 30.9 70.5 50.1 113.4 50.1 42.9 0 82.5-19.2 113.4-50.1 20.1-20.1 36-42.7 46.1-67.1 12.3 2.6 25.1 5.2 38.4 5.2 16.7 0 48.3-3.8 78.4-15.5 30.1-11.7 59.7-29.5 87.7-53.4 28-23.9 53.4-53.4 65.1-83.5 11.7-30.1 11.7-61.7 0-91.8-11.7-30.1-29.5-59.7-53.4-87.7-23.9-28-53.4-53.4-83.5-65.1z"/>
</svg> 